<?xml version="1.0" encoding="utf-8"?>

<!-- The icon can be used freely in both personal and commercial projects with no attribution required, but always appreciated. 
You may NOT sub-license, resell, rent, redistribute or otherwise transfer the icon without express written permission from iconmonstr.com -->

<!DOCTYPE svg PUBLIC "-//W3C//DTD SVG 1.1//EN" "http://www.w3.org/Graphics/SVG/1.1/DTD/svg11.dtd">
<svg version="1.1" xmlns="http://www.w3.org/2000/svg" xmlns:xlink="http://www.w3.org/1999/xlink" x="0px" y="0px"
	 width="512px" height="512px" viewBox="0 0 512 512" enable-background="new 0 0 512 512" xml:space="preserve">
<path id="shopping-cart-4-icon" d="M346.914,143.609H50.168l53.562,121.166h205.086L346.914,143.609z M111.506,183.609h182.875
	l-13.355,41.667H129.953L111.506,183.609z M461.832,105.109l-12.746,40h-29.98l-59.178,188.166h-227.07l-17.627-40H330.68
	l59.18-188.166H461.832z M316.816,380c0,14.852-12.039,26.891-26.891,26.891S263.035,394.852,263.035,380
	s12.039-26.891,26.891-26.891S316.816,365.148,316.816,380z M227.932,380c0,14.852-12.039,26.891-26.891,26.891
	S174.15,394.852,174.15,380s12.039-26.891,26.891-26.891S227.932,365.148,227.932,380z"/>
</svg>
