<?xml version="1.0" encoding="utf-8"?>

<!-- The icon can be used freely in both personal and commercial projects with no attribution required, but always appreciated. 
You may NOT sub-license, resell, rent, redistribute or otherwise transfer the icon without express written permission from iconmonstr.com -->

<!DOCTYPE svg PUBLIC "-//W3C//DTD SVG 1.1//EN" "http://www.w3.org/Graphics/SVG/1.1/DTD/svg11.dtd">
<svg version="1.1" xmlns="http://www.w3.org/2000/svg" xmlns:xlink="http://www.w3.org/1999/xlink" x="0px" y="0px"
	 width="512px" height="512px" viewBox="0 0 512 512" enable-background="new 0 0 512 512" xml:space="preserve">
<path id="banknote-multi-9-icon" d="M407.546,233.142c-30.074,0-54.453,11.84-54.453,26.445c0,14.606,24.379,26.445,54.453,26.445
	S462,274.193,462,259.587C462,244.981,437.62,233.142,407.546,233.142z M411.266,273.112l-0.002,3.542l-6.903-0.012v-3.169
	c-3.311-0.213-7.686-1.102-10.909-2.41l2.287-5.837c2.986,0.863,7.104,1.906,10.658,1.912c0.784,0.002,1.542-0.048,2.253-0.16
	c3.445-0.546,4.314-2.815,0.26-4.104c-3.423-1.136-15.208-2.336-15.206-9.569c0-2.997,3.062-7.112,10.664-8.316l0.001-3.595
	l6.904,0.012l-0.001,3.298c2.957,0.155,5.975,0.561,9.458,1.365c-0.347,1.118-1.854,5.965-1.854,5.965
	c-2.243-0.563-5.81-1.52-9.341-1.524c-0.258-0.001-0.517,0.003-0.773,0.014c-4.666,0.185-5.002,2.684-1.856,3.844
	c6.451,2.153,15.795,3.989,15.794,10.377C422.707,269.68,417.468,272.484,411.266,273.112z M449.514,287.421
	c5.043-2.449,9.229-5.311,12.486-8.527v10.523c0,14.605-24.38,26.446-54.454,26.446s-54.453-11.841-54.453-26.446v-10.523
	c3.259,3.217,7.443,6.078,12.485,8.527c11.342,5.509,26.248,8.543,41.968,8.543C423.267,295.964,438.172,292.93,449.514,287.421z
	 M449.514,347.08c5.043-2.447,9.229-5.31,12.486-8.526v10.714c0,14.605-24.38,26.446-54.454,26.446s-54.453-11.841-54.453-26.446
	v-10.714c3.259,3.217,7.443,6.079,12.485,8.526c11.342,5.511,26.248,8.543,41.968,8.543
	C423.267,355.623,438.172,352.591,449.514,347.08z M449.514,317.251c5.043-2.448,9.229-5.312,12.486-8.528v10.524
	c0,14.605-24.38,26.445-54.454,26.445s-54.453-11.84-54.453-26.445v-10.524c3.259,3.217,7.443,6.08,12.485,8.528
	c11.342,5.509,26.248,8.543,41.968,8.543C423.267,325.794,438.172,322.76,449.514,317.251z M333.088,259.587
	c0-14.921,9.919-28.295,27.215-36.694c11.78-5.722,26.727-9.096,42.509-9.661v-25.707H101.381v158.024h231.707V259.587z
	 M252.099,324.336c-31.925,0-57.8-25.877-57.8-57.798c0-31.923,25.875-57.799,57.8-57.799c31.919,0,57.798,25.876,57.798,57.799
	C309.896,298.459,284.018,324.336,252.099,324.336z M375.578,161.976H75.688v158.857H50V136.286h325.578V161.976z M275.406,278.74
	c0.015,10.33-8.035,16.214-17.564,17.554v7.414h-10.605v-6.63c-5.093-0.434-11.812-2.282-16.766-5.01l3.508-12.222
	c5.61,2.185,13.792,4.936,19.844,3.615c5.293-1.153,6.626-5.906,0.397-8.589c-5.264-2.363-23.368-4.834-23.368-19.973
	c0-6.279,4.702-14.897,16.385-17.449v-7.525h10.605v6.904c4.545,0.314,9.183,1.151,14.535,2.826
	c-0.535,2.339-2.852,12.492-2.852,12.492c-3.695-1.259-9.737-3.459-15.541-3.132c-7.17,0.403-7.68,5.637-2.848,8.055
	C261.047,261.554,275.406,265.366,275.406,278.74z"/>
</svg>
